<svg width="46" height="46" viewBox="0 0 46 46" fill="none" xmlns="http://www.w3.org/2000/svg">
<path d="M23 0C16.7584 0 15.9735 0.02875 13.5211 0.138C11.0688 0.253 9.39837 0.63825 7.935 1.2075C6.40002 1.78485 5.00966 2.6905 3.86113 3.86113C2.69122 5.01025 1.78568 6.40044 1.2075 7.935C0.63825 9.3955 0.250125 11.0687 0.138 13.5125C0.02875 15.9706 0 16.7526 0 23.0029C0 29.2474 0.02875 30.0294 0.138 32.4818C0.253 34.9313 0.63825 36.6016 1.2075 38.065C1.79688 39.5772 2.58175 40.8595 3.86113 42.1389C5.13763 43.4182 6.41988 44.206 7.93213 44.7925C9.39838 45.3618 11.0659 45.7499 13.5154 45.862C15.9706 45.9712 16.7526 46 23 46C29.2474 46 30.0265 45.9712 32.4818 45.862C34.9284 45.747 36.6045 45.3618 38.0679 44.7925C39.6019 44.2149 40.9912 43.3092 42.1389 42.1389C43.4182 40.8595 44.2031 39.5772 44.7925 38.065C45.3589 36.6016 45.747 34.9313 45.862 32.4818C45.9712 30.0294 46 29.2474 46 23C46 16.7526 45.9712 15.9706 45.862 13.5154C45.747 11.0688 45.3589 9.3955 44.7925 7.935C44.2144 6.4004 43.3089 5.01019 42.1389 3.86113C40.9907 2.69007 39.6002 1.78436 38.065 1.2075C36.5988 0.63825 34.9255 0.250125 32.4789 0.138C30.0236 0.02875 29.2445 0 22.9943 0H23.0029H23ZM20.9386 4.14575H23.0029C29.1439 4.14575 29.8713 4.16587 32.2949 4.278C34.5374 4.37862 35.7564 4.75525 36.5671 5.06862C37.6395 5.4855 38.4071 5.98575 39.2121 6.79075C40.0171 7.59575 40.5145 8.3605 40.9314 9.43575C41.2476 10.2436 41.6214 11.4626 41.722 13.7051C41.8341 16.1287 41.8571 16.8561 41.8571 22.9943C41.8571 29.1324 41.8341 29.8626 41.722 32.2862C41.6214 34.5287 41.2448 35.7449 40.9314 36.5556C40.5626 37.5543 39.9741 38.4573 39.2092 39.1978C38.4042 40.0028 37.6395 40.5001 36.5643 40.917C35.7593 41.2332 34.5402 41.607 32.2949 41.7105C29.8713 41.8198 29.1439 41.8456 23.0029 41.8456C16.8619 41.8456 16.1316 41.8198 13.708 41.7105C11.4655 41.607 10.2494 41.2332 9.43863 40.917C8.43956 40.5488 7.53574 39.9613 6.79362 39.1978C6.02816 38.4561 5.4387 37.5523 5.06862 36.5527C4.75525 35.7449 4.37862 34.5259 4.278 32.2834C4.16875 29.8598 4.14575 29.1324 4.14575 22.9885C4.14575 16.8475 4.16875 16.123 4.278 13.6994C4.3815 11.4569 4.75525 10.2379 5.0715 9.42712C5.48838 8.35475 5.98862 7.58712 6.79362 6.78212C7.59862 5.97712 8.36337 5.47975 9.43863 5.06288C10.2494 4.74662 11.4655 4.37288 13.708 4.26937C15.8298 4.17163 16.652 4.14288 20.9386 4.14V4.14575ZM35.2791 7.96375C34.9167 7.96375 34.5578 8.03514 34.2229 8.17384C33.8881 8.31255 33.5838 8.51585 33.3275 8.77214C33.0712 9.02843 32.8679 9.33269 32.7292 9.66754C32.5905 10.0024 32.5191 10.3613 32.5191 10.7238C32.5191 11.0862 32.5905 11.4451 32.7292 11.78C32.8679 12.1148 33.0712 12.4191 33.3275 12.6754C33.5838 12.9317 33.8881 13.135 34.2229 13.2737C34.5578 13.4124 34.9167 13.4838 35.2791 13.4838C36.0111 13.4838 36.7131 13.193 37.2307 12.6754C37.7483 12.1578 38.0391 11.4557 38.0391 10.7238C38.0391 9.99175 37.7483 9.28974 37.2307 8.77214C36.7131 8.25453 36.0111 7.96375 35.2791 7.96375ZM23.0029 11.1895C21.4362 11.1651 19.8803 11.4525 18.4258 12.0352C16.9713 12.6178 15.6472 13.484 14.5307 14.5832C13.4141 15.6825 12.5274 16.9929 11.9222 18.4381C11.3169 19.8834 11.0052 21.4346 11.0052 23.0014C11.0052 24.5683 11.3169 26.1195 11.9222 27.5648C12.5274 29.01 13.4141 30.3204 14.5307 31.4197C15.6472 32.5189 16.9713 33.3851 18.4258 33.9677C19.8803 34.5504 21.4362 34.8378 23.0029 34.8134C26.1037 34.765 29.0611 33.4992 31.2368 31.2893C33.4125 29.0794 34.632 26.1026 34.632 23.0014C34.632 19.9003 33.4125 16.9234 31.2368 14.7135C29.0611 12.5036 26.1037 11.2379 23.0029 11.1895ZM23.0029 15.3324C25.0365 15.3324 26.9867 16.1402 28.4247 17.5782C29.8627 19.0161 30.6705 20.9664 30.6705 23C30.6705 25.0336 29.8627 26.9839 28.4247 28.4218C26.9867 29.8598 25.0365 30.6676 23.0029 30.6676C20.9693 30.6676 19.019 29.8598 17.581 28.4218C16.1431 26.9839 15.3352 25.0336 15.3352 23C15.3352 20.9664 16.1431 19.0161 17.581 17.5782C19.019 16.1402 20.9693 15.3324 23.0029 15.3324Z" fill="#151406"/>
</svg>
